<?xml version="1.0" encoding="utf-8"?>
<svg width="532px" height="479px" viewBox="0 0 532 479" version="1.1" xmlns:xlink="http://www.w3.org/1999/xlink" xmlns="http://www.w3.org/2000/svg">
  <desc>Created with Lunacy</desc>
  <defs>
    <path d="M9.999 0L59.001 0Q59.2465 0 59.4916 0.0120442Q59.7368 0.0240885 59.9811 0.0481479Q60.2253 0.0722074 60.4681 0.108224Q60.711 0.144241 60.9517 0.192128Q61.1924 0.240015 61.4305 0.299657Q61.6687 0.3593 61.9035 0.430553Q62.1384 0.501807 62.3696 0.584501Q62.6007 0.667194 62.8274 0.761128Q63.0542 0.855062 63.2761 0.960011Q63.498 1.06496 63.7145 1.18067Q63.931 1.29638 64.1415 1.42257Q64.352 1.54876 64.5561 1.68514Q64.7602 1.82151 64.9574 1.96773Q65.1545 2.11395 65.3443 2.26967Q65.534 2.42539 65.7159 2.59023Q65.8978 2.75507 66.0714 2.92864Q66.2449 3.10221 66.4098 3.28408Q66.5746 3.46596 66.7303 3.6557Q66.886 3.84545 67.0323 4.0426Q67.1785 4.23976 67.3148 4.44385Q67.4512 4.64795 67.5774 4.85849Q67.7036 5.06903 67.8193 5.2855Q67.935 5.50198 68.04 5.72388Q68.1449 5.94577 68.2389 6.17255Q68.3328 6.39932 68.4155 6.63044Q68.4982 6.86155 68.5694 7.09644Q68.6407 7.33134 68.7003 7.56944Q68.76 7.80755 68.8079 8.04829Q68.8558 8.28904 68.8918 8.53184Q68.9278 8.77465 68.9519 9.01893Q68.9759 9.26321 68.988 9.50837Q69 9.75354 69 9.999L69 34.001Q69 34.2465 68.988 34.4916Q68.9759 34.7368 68.9519 34.9811Q68.9278 35.2254 68.8918 35.4682Q68.8558 35.711 68.8079 35.9517Q68.76 36.1925 68.7003 36.4306Q68.6407 36.6687 68.5694 36.9035Q68.4982 37.1384 68.4155 37.3696Q68.3328 37.6007 68.2389 37.8274Q68.1449 38.0542 68.04 38.2761Q67.935 38.498 67.8193 38.7145Q67.7036 38.931 67.5774 39.1415Q67.4512 39.352 67.3148 39.5561Q67.1785 39.7602 67.0323 39.9574Q66.886 40.1546 66.7303 40.3443Q66.5746 40.534 66.4098 40.7159Q66.2449 40.8978 66.0714 41.0714Q65.8978 41.2449 65.7159 41.4098Q65.534 41.5746 65.3443 41.7303Q65.1545 41.8861 64.9574 42.0323Q64.7602 42.1785 64.5561 42.3149Q64.352 42.4512 64.1415 42.5774Q63.931 42.7036 63.7145 42.8193Q63.498 42.935 63.2761 43.04Q63.0542 43.1449 62.8274 43.2389Q62.6007 43.3328 62.3696 43.4155Q62.1384 43.4982 61.9035 43.5694Q61.6687 43.6407 61.4306 43.7003Q61.1924 43.76 60.9517 43.8079Q60.711 43.8558 60.4682 43.8918Q60.2253 43.9278 59.9811 43.9519Q59.7368 43.9759 59.4916 43.988Q59.2465 44 59.001 44L9.999 44Q9.75354 44 9.50837 43.988Q9.26321 43.9759 9.01893 43.9519Q8.77465 43.9278 8.53184 43.8918Q8.28904 43.8558 8.04829 43.8079Q7.80755 43.76 7.56944 43.7003Q7.33134 43.6407 7.09644 43.5694Q6.86155 43.4982 6.63044 43.4155Q6.39932 43.3328 6.17255 43.2389Q5.94577 43.1449 5.72388 43.04Q5.50198 42.935 5.2855 42.8193Q5.06903 42.7036 4.85849 42.5774Q4.64795 42.4512 4.44385 42.3149Q4.23976 42.1785 4.0426 42.0323Q3.84545 41.8861 3.6557 41.7303Q3.46596 41.5746 3.28408 41.4098Q3.10221 41.2449 2.92864 41.0714Q2.75507 40.8978 2.59023 40.7159Q2.42539 40.534 2.26967 40.3443Q2.11395 40.1546 1.96773 39.9574Q1.82151 39.7602 1.68514 39.5561Q1.54876 39.352 1.42257 39.1415Q1.29638 38.931 1.18067 38.7145Q1.06496 38.498 0.960011 38.2761Q0.855062 38.0542 0.761128 37.8274Q0.667194 37.6007 0.584501 37.3696Q0.501807 37.1384 0.430553 36.9035Q0.3593 36.6687 0.299657 36.4306Q0.240015 36.1925 0.192128 35.9517Q0.144241 35.711 0.108224 35.4682Q0.0722074 35.2254 0.0481479 34.9811Q0.0240885 34.7368 0.0120442 34.4916Q0 34.2465 0 34.001L0 9.999Q0 9.75354 0.0120442 9.50837Q0.0240885 9.26321 0.0481479 9.01893Q0.0722074 8.77465 0.108224 8.53184Q0.144241 8.28904 0.192128 8.04829Q0.240015 7.80755 0.299657 7.56944Q0.3593 7.33134 0.430553 7.09644Q0.501807 6.86155 0.584501 6.63044Q0.667194 6.39932 0.761128 6.17255Q0.855062 5.94577 0.960011 5.72388Q1.06496 5.50198 1.18067 5.2855Q1.29638 5.06903 1.42257 4.85849Q1.54876 4.64795 1.68514 4.44385Q1.82151 4.23976 1.96773 4.0426Q2.11395 3.84545 2.26967 3.6557Q2.42539 3.46596 2.59023 3.28408Q2.75507 3.10221 2.92864 2.92864Q3.10221 2.75507 3.28408 2.59023Q3.46596 2.42539 3.6557 2.26967Q3.84545 2.11395 4.0426 1.96773Q4.23976 1.82151 4.44385 1.68514Q4.64795 1.54876 4.85849 1.42257Q5.06903 1.29638 5.2855 1.18067Q5.50198 1.06496 5.72388 0.960011Q5.94577 0.855062 6.17255 0.761128Q6.39932 0.667194 6.63044 0.584501Q6.86155 0.501807 7.09644 0.430553Q7.33134 0.3593 7.56944 0.299657Q7.80755 0.240015 8.04829 0.192128Q8.28904 0.144241 8.53184 0.108224Q8.77465 0.0722074 9.01893 0.0481479Q9.26321 0.0240885 9.50837 0.0120442Q9.75354 0 9.999 0Z" transform="translate(400 29)" id="path_1" />
    <path d="M9.999 0L75.001 0Q75.2465 0 75.4916 0.0120442Q75.7368 0.0240885 75.9811 0.0481479Q76.2253 0.0722074 76.4682 0.108224Q76.711 0.144241 76.9517 0.192128Q77.1925 0.240015 77.4306 0.299657Q77.6687 0.3593 77.9035 0.430553Q78.1384 0.501807 78.3695 0.584501Q78.6007 0.667194 78.8274 0.761128Q79.0542 0.855062 79.2761 0.960011Q79.498 1.06496 79.7145 1.18067Q79.931 1.29638 80.1415 1.42257Q80.3521 1.54876 80.5561 1.68514Q80.7602 1.82151 80.9574 1.96773Q81.1545 2.11395 81.3443 2.26967Q81.534 2.42539 81.7159 2.59023Q81.8978 2.75507 82.0714 2.92864Q82.2449 3.10221 82.4098 3.28408Q82.5746 3.46596 82.7303 3.6557Q82.8861 3.84545 83.0323 4.0426Q83.1785 4.23976 83.3149 4.44385Q83.4512 4.64795 83.5774 4.85849Q83.7036 5.06903 83.8193 5.2855Q83.935 5.50198 84.04 5.72388Q84.1449 5.94577 84.2389 6.17255Q84.3328 6.39932 84.4155 6.63044Q84.4982 6.86155 84.5695 7.09644Q84.6407 7.33134 84.7003 7.56944Q84.76 7.80755 84.8079 8.04829Q84.8558 8.28904 84.8918 8.53184Q84.9278 8.77465 84.9519 9.01893Q84.9759 9.26321 84.988 9.50837Q85 9.75354 85 9.999L85 38.001Q85 38.2465 84.988 38.4916Q84.9759 38.7368 84.9519 38.9811Q84.9278 39.2253 84.8918 39.4682Q84.8558 39.711 84.8079 39.9517Q84.76 40.1924 84.7003 40.4305Q84.6407 40.6687 84.5695 40.9035Q84.4982 41.1384 84.4155 41.3696Q84.3328 41.6007 84.2389 41.8274Q84.1449 42.0542 84.04 42.2761Q83.935 42.498 83.8193 42.7145Q83.7036 42.931 83.5774 43.1415Q83.4512 43.352 83.3149 43.5561Q83.1785 43.7602 83.0323 43.9574Q82.8861 44.1545 82.7303 44.3443Q82.5746 44.534 82.4098 44.7159Q82.2449 44.8978 82.0714 45.0714Q81.8978 45.2449 81.7159 45.4098Q81.534 45.5746 81.3443 45.7303Q81.1545 45.886 80.9574 46.0323Q80.7602 46.1785 80.5561 46.3149Q80.3521 46.4512 80.1415 46.5774Q79.931 46.7036 79.7145 46.8193Q79.498 46.935 79.2761 47.04Q79.0542 47.1449 78.8274 47.2389Q78.6007 47.3328 78.3696 47.4155Q78.1384 47.4982 77.9036 47.5694Q77.6687 47.6407 77.4306 47.7003Q77.1925 47.76 76.9517 47.8079Q76.711 47.8557 76.4682 47.8918Q76.2253 47.9278 75.9811 47.9518Q75.7368 47.9759 75.4916 47.988Q75.2465 48 75.001 48L9.999 48Q9.75354 48 9.50837 47.988Q9.26321 47.9759 9.01893 47.9518Q8.77465 47.9278 8.53184 47.8918Q8.28904 47.8557 8.04829 47.8079Q7.80755 47.76 7.56944 47.7003Q7.33134 47.6407 7.09644 47.5694Q6.86155 47.4982 6.63044 47.4155Q6.39932 47.3328 6.17255 47.2389Q5.94577 47.1449 5.72388 47.04Q5.50198 46.935 5.2855 46.8193Q5.06903 46.7036 4.85849 46.5774Q4.64795 46.4512 4.44385 46.3149Q4.23976 46.1785 4.0426 46.0323Q3.84545 45.886 3.6557 45.7303Q3.46596 45.5746 3.28408 45.4098Q3.10221 45.2449 2.92864 45.0714Q2.75507 44.8978 2.59023 44.7159Q2.42539 44.534 2.26967 44.3443Q2.11395 44.1545 1.96773 43.9574Q1.82151 43.7602 1.68514 43.5561Q1.54876 43.352 1.42257 43.1415Q1.29638 42.931 1.18067 42.7145Q1.06496 42.498 0.960011 42.2761Q0.855062 42.0542 0.761128 41.8274Q0.667194 41.6007 0.584501 41.3696Q0.501807 41.1384 0.430553 40.9036Q0.3593 40.6687 0.299657 40.4306Q0.240015 40.1924 0.192128 39.9517Q0.144241 39.711 0.108224 39.4682Q0.0722074 39.2253 0.0481479 38.9811Q0.0240885 38.7368 0.0120442 38.4916Q0 38.2465 0 38.001L0 9.999Q0 9.75354 0.0120442 9.50837Q0.0240885 9.26321 0.0481479 9.01893Q0.0722074 8.77465 0.108224 8.53184Q0.144241 8.28904 0.192128 8.04829Q0.240015 7.80755 0.299657 7.56944Q0.3593 7.33134 0.430553 7.09644Q0.501807 6.86155 0.584501 6.63044Q0.667194 6.39932 0.761128 6.17255Q0.855062 5.94577 0.960011 5.72388Q1.06496 5.50198 1.18067 5.2855Q1.29638 5.06903 1.42257 4.85849Q1.54876 4.64795 1.68514 4.44385Q1.82151 4.23976 1.96773 4.0426Q2.11395 3.84545 2.26967 3.6557Q2.42539 3.46596 2.59023 3.28408Q2.75507 3.10221 2.92864 2.92864Q3.10221 2.75507 3.28408 2.59023Q3.46596 2.42539 3.6557 2.26967Q3.84545 2.11395 4.0426 1.96773Q4.23976 1.82151 4.44385 1.68514Q4.64795 1.54876 4.85849 1.42257Q5.06903 1.29638 5.2855 1.18067Q5.50198 1.06496 5.72388 0.960011Q5.94577 0.855062 6.17255 0.761128Q6.39932 0.667194 6.63044 0.584501Q6.86155 0.501807 7.09644 0.430553Q7.33134 0.3593 7.56944 0.299657Q7.80755 0.240015 8.04829 0.192128Q8.28904 0.144241 8.53184 0.108224Q8.77465 0.0722074 9.01893 0.0481479Q9.26321 0.0240885 9.50837 0.0120442Q9.75354 0 9.999 0Z" transform="translate(43 25)" id="path_2" />
    <path d="M322.679 0.366897L189.88 4.83766e-05Q189.204 -0.00181846 188.529 0.0185882Q187.853 0.0389949 187.179 0.0816529Q186.504 0.124311 185.831 0.189174Q185.159 0.254037 184.489 0.341034Q183.818 0.428032 183.152 0.537069Q182.485 0.646107 181.822 0.777066Q181.159 0.908025 180.5 1.06076Q179.842 1.2135 179.189 1.38785Q178.536 1.5622 177.889 1.75798Q177.243 1.95376 176.602 2.17074Q175.962 2.38773 175.33 2.62569Q174.697 2.86365 174.073 3.12233Q173.449 3.38101 172.833 3.66013Q172.218 3.93924 171.612 4.23849Q171.006 4.53773 170.41 4.85679Q169.815 5.17584 169.23 5.51436Q168.645 5.85287 168.071 6.21048Q167.498 6.56809 166.937 6.9444Q166.375 7.32072 165.827 7.71532Q165.278 8.10993 164.743 8.52241Q164.207 8.93488 163.686 9.36478Q163.164 9.79467 162.657 10.2415Q162.151 10.6884 161.659 11.1517Q161.167 11.615 160.69 12.0943Q160.214 12.5735 159.753 13.0682Q159.293 13.563 158.849 14.0726Q158.405 14.5822 157.978 15.1062Q157.552 15.6301 157.142 16.1679Q156.733 16.7057 156.342 17.2566Q155.95 17.8076 155.577 18.3711Q155.204 18.9347 154.85 19.5102Q154.496 20.0857 154.161 20.6726L135.652 53.0955Q134.74 54.6921 134.152 56.4338L44.999 56.4338Q43.8943 56.4338 42.791 56.488Q41.6877 56.5422 40.5883 56.6505Q39.489 56.7588 38.3963 56.9209Q37.3036 57.083 36.2201 57.2985Q35.1367 57.514 34.0651 57.7824Q32.9936 58.0508 31.9365 58.3715Q30.8794 58.6921 29.8393 59.0643Q28.7992 59.4364 27.7786 59.8592Q26.758 60.2819 25.7594 60.7542Q24.7608 61.2265 23.7866 61.7473Q22.8124 62.268 21.8649 62.8359Q20.9174 63.4038 19.9989 64.0175Q19.0804 64.6313 18.1931 65.2893Q17.3059 65.9473 16.4519 66.6481Q15.598 67.3489 14.7795 68.0908Q13.961 68.8326 13.1799 69.6137Q12.3988 70.3949 11.6569 71.2133Q10.9151 72.0318 10.2143 72.8858Q9.51351 73.7397 8.85546 74.627Q8.19742 75.5142 7.5837 76.4327Q6.96998 77.3512 6.40207 78.2987Q5.83416 79.2462 5.31342 80.2205Q4.79269 81.1947 4.32038 82.1933Q3.84808 83.1919 3.42534 84.2125Q3.00261 85.233 2.63046 86.2731Q2.25831 87.3132 1.93764 88.3703Q1.61697 89.4274 1.34856 90.499Q1.08015 91.5705 0.864643 92.654Q0.649134 93.7374 0.487046 94.8301Q0.324958 95.9228 0.216682 97.0222Q0.108407 98.1215 0.0542033 99.2248Q0 100.328 0 101.433L0 338.435Q0 339.54 0.0542033 340.643Q0.108407 341.746 0.216682 342.846Q0.324958 343.945 0.487046 345.038Q0.649134 346.13 0.864643 347.214Q1.08015 348.297 1.34856 349.369Q1.61697 350.44 1.93764 351.497Q2.25831 352.554 2.63046 353.595Q3.00261 354.635 3.42534 355.655Q3.84808 356.676 4.32039 357.674Q4.79269 358.673 5.31342 359.647Q5.83416 360.621 6.40207 361.569Q6.96998 362.516 7.5837 363.435Q8.19742 364.353 8.85546 365.241Q9.51351 366.128 10.2143 366.982Q10.9151 367.836 11.6569 368.654Q12.3988 369.473 13.1799 370.254Q13.961 371.035 14.7795 371.777Q15.598 372.519 16.4519 373.22Q17.3059 373.92 18.1931 374.578Q19.0804 375.236 19.9989 375.85Q20.9174 376.464 21.8649 377.032Q22.8124 377.6 23.7866 378.12Q24.7608 378.641 25.7594 379.113Q26.7581 379.586 27.7786 380.008Q28.7992 380.431 29.8393 380.803Q30.8794 381.176 31.9365 381.496Q32.9936 381.817 34.0651 382.085Q35.1367 382.354 36.2201 382.569Q37.3036 382.785 38.3963 382.947Q39.489 383.109 40.5883 383.217Q41.6877 383.325 42.791 383.38Q43.8943 383.434 44.999 383.434L299.156 383.434C293.589 370.73 290.5 356.692 290.5 341.934C290.5 284.772 336.839 238.434 394 238.434C451.161 238.434 497.5 284.772 497.5 341.934C497.5 353.873 495.479 365.34 491.759 376.011Q492.339 375.628 492.908 375.228Q493.476 374.828 494.031 374.411Q494.587 373.993 495.129 373.559Q495.672 373.125 496.2 372.674Q496.729 372.223 497.244 371.756Q497.758 371.289 498.258 370.806Q498.758 370.324 499.243 369.826Q499.727 369.328 500.196 368.815Q500.666 368.303 501.119 367.776Q501.572 367.249 502.008 366.708Q502.445 366.168 502.865 365.614Q503.284 365.06 503.687 364.494Q504.089 363.927 504.474 363.349Q504.859 362.77 505.225 362.18Q505.592 361.589 505.94 360.988Q506.288 360.387 506.618 359.775Q506.947 359.163 507.258 358.542Q507.568 357.92 507.86 357.289Q508.151 356.658 508.422 356.019Q508.694 355.379 508.945 354.731Q509.197 354.084 509.429 353.428Q509.66 352.773 509.871 352.111Q510.083 351.449 510.273 350.781Q510.464 350.113 510.634 349.439Q510.804 348.765 510.953 348.087Q511.102 347.408 511.23 346.725Q511.358 346.042 511.465 345.355Q511.572 344.669 511.657 343.979Q511.743 343.29 511.807 342.598Q511.871 341.906 511.914 341.212Q511.957 340.519 511.979 339.824Q512 339.13 512 338.435L512 101.433Q512 100.328 511.946 99.2248Q511.892 98.1215 511.783 97.0222Q511.675 95.9228 511.513 94.8301Q511.351 93.7374 511.135 92.654Q510.92 91.5705 510.651 90.499Q510.383 89.4274 510.062 88.3703Q509.742 87.3132 509.369 86.2731Q508.997 85.233 508.575 84.2125Q508.152 83.1919 507.68 82.1933Q507.207 81.1947 506.686 80.2204Q506.166 79.2462 505.598 78.2987Q505.03 77.3512 504.416 76.4327Q503.802 75.5142 503.144 74.627Q502.486 73.7397 501.786 72.8858Q501.085 72.0318 500.343 71.2133Q499.601 70.3949 498.82 69.6137Q498.039 68.8326 497.22 68.0908Q496.402 67.3489 495.548 66.6481Q494.694 65.9473 493.807 65.2893Q492.92 64.6313 492.001 64.0175Q491.083 63.4038 490.135 62.8359Q489.188 62.268 488.213 61.7473Q487.239 61.2265 486.24 60.7542Q485.242 60.2819 484.221 59.8592Q483.201 59.4364 482.161 59.0643Q481.121 58.6921 480.063 58.3715Q479.006 58.0508 477.935 57.7824Q476.863 57.514 475.78 57.2985Q474.696 57.083 473.604 56.9209Q472.511 56.7588 471.412 56.6505Q470.312 56.5422 469.209 56.488Q468.106 56.4338 467.001 56.4338L377.217 56.4338Q376.78 55.3098 376.205 54.2499L358.601 21.8103Q358.273 21.2073 357.926 20.6156Q357.579 20.0239 357.212 19.4442Q356.845 18.8645 356.459 18.2973Q356.073 17.7302 355.668 17.1762Q355.264 16.6223 354.841 16.0823Q354.418 15.5422 353.977 15.0166Q353.536 14.491 353.078 13.9804Q352.619 13.4699 352.144 12.9749Q351.669 12.48 351.178 12.0012Q350.686 11.5225 350.179 11.0604Q349.672 10.5983 349.15 10.1535Q348.628 9.70866 348.091 9.28155Q347.554 8.85443 347.003 8.44552Q346.452 8.03661 345.888 7.64635Q345.324 7.2561 344.747 6.88494Q344.17 6.51378 343.581 6.16214Q342.992 5.81049 342.391 5.47875Q341.791 5.14701 341.179 4.83555Q340.568 4.52408 339.947 4.23324Q339.325 3.94241 338.695 3.67252Q338.064 3.40263 337.425 3.154Q336.785 2.90536 336.138 2.67826Q335.49 2.45116 334.836 2.24584Q334.181 2.04053 333.52 1.85723Q332.859 1.67393 332.192 1.51285Q331.525 1.35177 330.853 1.2131Q330.181 1.07442 329.505 0.958299Q328.829 0.842178 328.149 0.748745Q327.47 0.655312 326.787 0.58467Q326.105 0.514029 325.421 0.466257Q324.736 0.418486 324.051 0.393639Q323.365 0.368792 322.679 0.366897ZM255 133C216.34 133 185 164.917 185 204.288C185 243.66 216.34 275.577 255 275.577C293.66 275.577 325 243.66 325 204.288C325 164.917 293.66 133 255 133Z" id="path_3" />
    <path d="M0 128C0 57.3075 57.3075 0 128 0C198.692 0 256 57.3075 256 128C256 133.943 255.595 139.791 254.811 145.519C258.495 145.176 262.227 145 266 145C331.722 145 385 198.278 385 264C385 329.722 331.722 383 266 383C200.278 383 147 329.722 147 264C147 260.817 147.125 257.664 147.37 254.544C141.053 255.503 134.585 256 128 256C57.3075 256 0 198.692 0 128L0 128Z" transform="translate(128 77)" id="path_4" />
    <path d="M0 26C0 11.6406 11.6406 0 26 0C40.3594 0 52 11.6406 52 26C52 40.3594 40.3594 52 26 52C11.6406 52 0 40.3594 0 26Z" transform="translate(401.0001 93.99976)" id="path_5" />
    <clipPath id="clip_1">
      <use xlink:href="#path_1" />
    </clipPath>
    <clipPath id="clip_2">
      <use xlink:href="#path_2" />
    </clipPath>
    <clipPath id="clip_3">
      <use xlink:href="#path_3" />
    </clipPath>
    <clipPath id="clip_4">
      <use xlink:href="#path_4" />
    </clipPath>
    <clipPath id="clip_5">
      <use xlink:href="#path_5" />
    </clipPath>
  </defs>
  <g id="Camera" transform="translate(9.5 9.5)">
    <g id="Rectangle-2-Copy">
      <g clip-path="url(#clip_1)">
        <use xlink:href="#path_1" fill="none" stroke="#FFFFFF" stroke-width="34" />
      </g>
    </g>
    <g id="Rectangle-2">
      <g clip-path="url(#clip_2)">
        <use xlink:href="#path_2" fill="none" stroke="#FFFFFF" stroke-width="34" />
      </g>
    </g>
    <g id="Rectangle-Union-Difference">
      <g clip-path="url(#clip_3)">
        <use xlink:href="#path_3" fill="none" stroke="#FFFFFF" stroke-width="38" />
      </g>
    </g>
    <g id="Vector-shape">
      <g clip-path="url(#clip_4)">
        <use xlink:href="#path_4" fill="none" stroke="#FFFFFF" stroke-width="38" />
      </g>
    </g>
    <path d="M1 0L1 161" transform="translate(85 127)" id="New-shape" fill="none" stroke="#FFFFFF" stroke-width="19" stroke-linecap="round" />
    <g id="Ellipse-Copy-2">
      <g clip-path="url(#clip_5)">
        <use xlink:href="#path_5" fill="none" stroke="#FFFFFF" stroke-width="34" />
      </g>
    </g>
    <path d="M0 1L141 1" transform="translate(324 340)" id="New-shape-2-Copy" fill="none" stroke="#FFFFFF" stroke-width="19" stroke-linecap="round" />
    <path d="M1 0L1 139" transform="translate(393 272)" id="New-shape-2" fill="none" stroke="#FFFFFF" stroke-width="19" stroke-linecap="round" />
  </g>
</svg>