<?xml version="1.0" encoding="utf-8"?>
<svg width="528px" height="475px" viewBox="0 0 528 475" version="1.1" xmlns:xlink="http://www.w3.org/1999/xlink" xmlns="http://www.w3.org/2000/svg">
  <desc>Created with Lunacy</desc>
  <defs>
    <radialGradient gradientUnits="objectBoundingBox" cx="88.85371%" cy="16.00321%" fx="88.85371%" fy="16.00321%" r="98.30549%" gradientTransform="translate(0.8885371,0.1600321),scale(0.7488945,1),rotate(146.3747),scale(1,0.9781365),translate(-0.8885371,-0.1600321)" id="gradient_1">
      <stop offset="0%" stop-color="#005BEA" />
      <stop offset="27.79547%" stop-color="#0064EB" />
      <stop offset="100%" stop-color="#00C6FB" />
    </radialGradient>
    <path d="M9.999 0L59.001 0Q59.2465 0 59.4916 0.0120442Q59.7368 0.0240885 59.9811 0.0481479Q60.2253 0.0722074 60.4681 0.108224Q60.711 0.144241 60.9517 0.192128Q61.1924 0.240015 61.4305 0.299657Q61.6687 0.3593 61.9035 0.430553Q62.1384 0.501807 62.3696 0.584501Q62.6007 0.667194 62.8274 0.761128Q63.0542 0.855062 63.2761 0.960011Q63.498 1.06496 63.7145 1.18067Q63.931 1.29638 64.1415 1.42257Q64.352 1.54876 64.5561 1.68514Q64.7602 1.82151 64.9574 1.96773Q65.1545 2.11395 65.3443 2.26967Q65.534 2.42539 65.7159 2.59023Q65.8978 2.75507 66.0714 2.92864Q66.2449 3.10221 66.4098 3.28408Q66.5746 3.46596 66.7303 3.6557Q66.886 3.84545 67.0323 4.0426Q67.1785 4.23976 67.3148 4.44385Q67.4512 4.64795 67.5774 4.85849Q67.7036 5.06903 67.8193 5.2855Q67.935 5.50198 68.04 5.72388Q68.1449 5.94577 68.2389 6.17255Q68.3328 6.39932 68.4155 6.63044Q68.4982 6.86155 68.5694 7.09644Q68.6407 7.33134 68.7003 7.56944Q68.76 7.80755 68.8079 8.04829Q68.8558 8.28904 68.8918 8.53184Q68.9278 8.77465 68.9519 9.01893Q68.9759 9.26321 68.988 9.50837Q69 9.75354 69 9.999L69 39.001Q69 39.2465 68.988 39.4916Q68.9759 39.7368 68.9519 39.9811Q68.9278 40.2254 68.8918 40.4682Q68.8558 40.711 68.8079 40.9517Q68.76 41.1924 68.7003 41.4306Q68.6407 41.6687 68.5694 41.9036Q68.4982 42.1384 68.4155 42.3696Q68.3328 42.6007 68.2389 42.8274Q68.1449 43.0542 68.04 43.2761Q67.935 43.498 67.8193 43.7145Q67.7036 43.931 67.5774 44.1415Q67.4512 44.352 67.3148 44.5561Q67.1785 44.7602 67.0323 44.9574Q66.886 45.1545 66.7303 45.3443Q66.5746 45.534 66.4098 45.7159Q66.2449 45.8978 66.0714 46.0714Q65.8978 46.2449 65.7159 46.4098Q65.534 46.5746 65.3443 46.7303Q65.1545 46.886 64.9574 47.0323Q64.7602 47.1785 64.5561 47.3149Q64.352 47.4512 64.1415 47.5774Q63.931 47.7036 63.7145 47.8193Q63.498 47.935 63.2761 48.04Q63.0542 48.1449 62.8274 48.2389Q62.6007 48.3328 62.3696 48.4155Q62.1384 48.4982 61.9035 48.5694Q61.6687 48.6407 61.4306 48.7003Q61.1924 48.76 60.9517 48.8079Q60.711 48.8558 60.4682 48.8918Q60.2253 48.9278 59.9811 48.9519Q59.7368 48.9759 59.4916 48.988Q59.2465 49 59.001 49L9.999 49Q9.75354 49 9.50837 48.988Q9.26321 48.9759 9.01893 48.9519Q8.77465 48.9278 8.53184 48.8918Q8.28904 48.8558 8.04829 48.8079Q7.80755 48.76 7.56944 48.7003Q7.33134 48.6407 7.09644 48.5694Q6.86155 48.4982 6.63044 48.4155Q6.39932 48.3328 6.17255 48.2389Q5.94577 48.1449 5.72388 48.04Q5.50198 47.935 5.2855 47.8193Q5.06903 47.7036 4.85849 47.5774Q4.64795 47.4512 4.44385 47.3149Q4.23976 47.1785 4.0426 47.0323Q3.84545 46.886 3.6557 46.7303Q3.46596 46.5746 3.28408 46.4098Q3.10221 46.2449 2.92864 46.0714Q2.75507 45.8978 2.59023 45.7159Q2.42539 45.534 2.26967 45.3443Q2.11395 45.1545 1.96773 44.9574Q1.82151 44.7602 1.68514 44.5561Q1.54876 44.352 1.42257 44.1415Q1.29638 43.931 1.18067 43.7145Q1.06496 43.498 0.960011 43.2761Q0.855062 43.0542 0.761128 42.8274Q0.667194 42.6007 0.584501 42.3696Q0.501807 42.1384 0.430553 41.9036Q0.3593 41.6687 0.299657 41.4306Q0.240015 41.1924 0.192128 40.9517Q0.144241 40.711 0.108224 40.4682Q0.0722074 40.2254 0.0481479 39.9811Q0.0240885 39.7368 0.0120442 39.4916Q0 39.2465 0 39.001L0 9.999Q0 9.75354 0.0120442 9.50837Q0.0240885 9.26321 0.0481479 9.01893Q0.0722074 8.77465 0.108224 8.53184Q0.144241 8.28904 0.192128 8.04829Q0.240015 7.80755 0.299657 7.56944Q0.3593 7.33134 0.430553 7.09644Q0.501807 6.86155 0.584501 6.63044Q0.667194 6.39932 0.761128 6.17255Q0.855062 5.94577 0.960011 5.72388Q1.06496 5.50198 1.18067 5.2855Q1.29638 5.06903 1.42257 4.85849Q1.54876 4.64795 1.68514 4.44385Q1.82151 4.23976 1.96773 4.0426Q2.11395 3.84545 2.26967 3.6557Q2.42539 3.46596 2.59023 3.28408Q2.75507 3.10221 2.92864 2.92864Q3.10221 2.75507 3.28408 2.59023Q3.46596 2.42539 3.6557 2.26967Q3.84545 2.11395 4.0426 1.96773Q4.23976 1.82151 4.44385 1.68514Q4.64795 1.54876 4.85849 1.42257Q5.06903 1.29638 5.2855 1.18067Q5.50198 1.06496 5.72388 0.960011Q5.94577 0.855062 6.17255 0.761128Q6.39932 0.667194 6.63044 0.584501Q6.86155 0.501807 7.09644 0.430553Q7.33134 0.3593 7.56944 0.299657Q7.80755 0.240015 8.04829 0.192128Q8.28904 0.144241 8.53184 0.108224Q8.77465 0.0722074 9.01893 0.0481479Q9.26321 0.0240885 9.50837 0.0120442Q9.75354 0 9.999 0Z" transform="translate(400 30)" id="path_1" />
    <path d="M9.999 0L75.001 0Q75.2465 0 75.4916 0.0120442Q75.7368 0.0240885 75.9811 0.0481479Q76.2253 0.0722074 76.4682 0.108224Q76.711 0.144241 76.9517 0.192128Q77.1925 0.240015 77.4306 0.299657Q77.6687 0.3593 77.9035 0.430553Q78.1384 0.501807 78.3695 0.584501Q78.6007 0.667194 78.8274 0.761128Q79.0542 0.855062 79.2761 0.960011Q79.498 1.06496 79.7145 1.18067Q79.931 1.29638 80.1415 1.42257Q80.3521 1.54876 80.5561 1.68514Q80.7602 1.82151 80.9574 1.96773Q81.1545 2.11395 81.3443 2.26967Q81.534 2.42539 81.7159 2.59023Q81.8978 2.75507 82.0714 2.92864Q82.2449 3.10221 82.4098 3.28408Q82.5746 3.46596 82.7303 3.6557Q82.8861 3.84545 83.0323 4.0426Q83.1785 4.23976 83.3149 4.44385Q83.4512 4.64795 83.5774 4.85849Q83.7036 5.06903 83.8193 5.2855Q83.935 5.50198 84.04 5.72388Q84.1449 5.94577 84.2389 6.17255Q84.3328 6.39932 84.4155 6.63044Q84.4982 6.86155 84.5695 7.09644Q84.6407 7.33134 84.7003 7.56944Q84.76 7.80755 84.8079 8.04829Q84.8558 8.28904 84.8918 8.53184Q84.9278 8.77465 84.9519 9.01893Q84.9759 9.26321 84.988 9.50837Q85 9.75354 85 9.999L85 48.001Q85 48.2465 84.988 48.4916Q84.9759 48.7368 84.9519 48.9811Q84.9278 49.2253 84.8918 49.4682Q84.8558 49.711 84.8079 49.9517Q84.76 50.1924 84.7003 50.4306Q84.6407 50.6687 84.5695 50.9035Q84.4982 51.1384 84.4155 51.3695Q84.3328 51.6007 84.2389 51.8274Q84.1449 52.0542 84.04 52.2761Q83.935 52.498 83.8193 52.7145Q83.7036 52.931 83.5774 53.1415Q83.4512 53.352 83.3149 53.5561Q83.1785 53.7602 83.0323 53.9574Q82.8861 54.1546 82.7303 54.3443Q82.5746 54.534 82.4098 54.7159Q82.2449 54.8978 82.0714 55.0714Q81.8978 55.2449 81.7159 55.4098Q81.534 55.5746 81.3443 55.7303Q81.1545 55.886 80.9574 56.0323Q80.7602 56.1785 80.5561 56.3149Q80.3521 56.4512 80.1415 56.5774Q79.931 56.7036 79.7145 56.8193Q79.498 56.935 79.2761 57.04Q79.0542 57.1449 78.8274 57.2389Q78.6007 57.3328 78.3696 57.4155Q78.1384 57.4982 77.9036 57.5694Q77.6687 57.6407 77.4306 57.7003Q77.1925 57.76 76.9517 57.8079Q76.711 57.8558 76.4682 57.8918Q76.2253 57.9278 75.9811 57.9519Q75.7368 57.9759 75.4916 57.988Q75.2465 58 75.001 58L9.999 58Q9.75354 58 9.50837 57.988Q9.26321 57.9759 9.01893 57.9519Q8.77465 57.9278 8.53184 57.8918Q8.28904 57.8558 8.04829 57.8079Q7.80755 57.76 7.56944 57.7003Q7.33134 57.6407 7.09644 57.5694Q6.86155 57.4982 6.63044 57.4155Q6.39932 57.3328 6.17255 57.2389Q5.94577 57.1449 5.72388 57.04Q5.50198 56.935 5.2855 56.8193Q5.06903 56.7036 4.85849 56.5774Q4.64795 56.4512 4.44385 56.3149Q4.23976 56.1785 4.0426 56.0323Q3.84545 55.886 3.6557 55.7303Q3.46596 55.5746 3.28408 55.4098Q3.10221 55.2449 2.92864 55.0714Q2.75507 54.8978 2.59023 54.7159Q2.42539 54.534 2.26967 54.3443Q2.11395 54.1546 1.96773 53.9574Q1.82151 53.7602 1.68514 53.5561Q1.54876 53.352 1.42257 53.1415Q1.29638 52.931 1.18067 52.7145Q1.06496 52.498 0.960011 52.2761Q0.855062 52.0542 0.761128 51.8274Q0.667194 51.6007 0.584501 51.3696Q0.501807 51.1384 0.430553 50.9035Q0.3593 50.6687 0.299657 50.4306Q0.240015 50.1925 0.192128 49.9517Q0.144241 49.711 0.108224 49.4682Q0.0722074 49.2254 0.0481479 48.9811Q0.0240885 48.7368 0.0120442 48.4916Q0 48.2465 0 48.001L0 9.999Q0 9.75354 0.0120442 9.50837Q0.0240885 9.26321 0.0481479 9.01893Q0.0722074 8.77465 0.108224 8.53184Q0.144241 8.28904 0.192128 8.04829Q0.240015 7.80755 0.299657 7.56944Q0.3593 7.33134 0.430553 7.09644Q0.501807 6.86155 0.584501 6.63044Q0.667194 6.39932 0.761128 6.17255Q0.855062 5.94577 0.960011 5.72388Q1.06496 5.50198 1.18067 5.2855Q1.29638 5.06903 1.42257 4.85849Q1.54876 4.64795 1.68514 4.44385Q1.82151 4.23976 1.96773 4.0426Q2.11395 3.84545 2.26967 3.6557Q2.42539 3.46596 2.59023 3.28408Q2.75507 3.10221 2.92864 2.92864Q3.10221 2.75507 3.28408 2.59023Q3.46596 2.42539 3.6557 2.26967Q3.84545 2.11395 4.0426 1.96773Q4.23976 1.82151 4.44385 1.68514Q4.64795 1.54876 4.85849 1.42257Q5.06903 1.29638 5.2855 1.18067Q5.50198 1.06496 5.72388 0.960011Q5.94577 0.855062 6.17255 0.761128Q6.39932 0.667194 6.63044 0.584501Q6.86155 0.501807 7.09644 0.430553Q7.33134 0.3593 7.56944 0.299657Q7.80755 0.240015 8.04829 0.192128Q8.28904 0.144241 8.53184 0.108224Q8.77465 0.0722074 9.01893 0.0481479Q9.26321 0.0240885 9.50837 0.0120442Q9.75354 0 9.999 0Z" transform="translate(43 25)" id="path_2" />
    <path d="M322.679 0.366897L189.88 4.83766e-05Q189.204 -0.00181846 188.529 0.0185882Q187.853 0.0389949 187.179 0.0816529Q186.504 0.124311 185.831 0.189174Q185.159 0.254037 184.489 0.341034Q183.818 0.428032 183.152 0.537069Q182.485 0.646107 181.822 0.777066Q181.159 0.908025 180.5 1.06076Q179.842 1.2135 179.189 1.38785Q178.536 1.5622 177.889 1.75798Q177.243 1.95376 176.602 2.17074Q175.962 2.38773 175.33 2.62569Q174.697 2.86365 174.073 3.12233Q173.449 3.38101 172.833 3.66013Q172.218 3.93924 171.612 4.23849Q171.006 4.53773 170.41 4.85679Q169.815 5.17584 169.23 5.51436Q168.645 5.85287 168.071 6.21048Q167.498 6.56809 166.937 6.9444Q166.375 7.32072 165.827 7.71532Q165.278 8.10993 164.743 8.52241Q164.207 8.93488 163.686 9.36478Q163.164 9.79467 162.657 10.2415Q162.151 10.6884 161.659 11.1517Q161.167 11.615 160.69 12.0943Q160.214 12.5735 159.753 13.0682Q159.293 13.563 158.849 14.0726Q158.405 14.5822 157.978 15.1062Q157.552 15.6301 157.142 16.1679Q156.733 16.7057 156.342 17.2566Q155.95 17.8076 155.577 18.3711Q155.204 18.9347 154.85 19.5102Q154.496 20.0857 154.161 20.6726L135.652 53.0955Q134.74 54.6921 134.152 56.4338L44.999 56.4338Q43.8943 56.4338 42.791 56.488Q41.6877 56.5422 40.5883 56.6505Q39.489 56.7588 38.3963 56.9209Q37.3036 57.083 36.2201 57.2985Q35.1367 57.514 34.0651 57.7824Q32.9936 58.0508 31.9365 58.3715Q30.8794 58.6921 29.8393 59.0643Q28.7992 59.4364 27.7786 59.8592Q26.758 60.2819 25.7594 60.7542Q24.7608 61.2265 23.7866 61.7473Q22.8124 62.268 21.8649 62.8359Q20.9174 63.4038 19.9989 64.0175Q19.0804 64.6313 18.1931 65.2893Q17.3059 65.9473 16.4519 66.6481Q15.598 67.3489 14.7795 68.0908Q13.961 68.8326 13.1799 69.6137Q12.3988 70.3949 11.6569 71.2133Q10.9151 72.0318 10.2143 72.8858Q9.51351 73.7397 8.85546 74.627Q8.19742 75.5142 7.5837 76.4327Q6.96998 77.3512 6.40207 78.2987Q5.83416 79.2462 5.31342 80.2205Q4.79269 81.1947 4.32038 82.1933Q3.84808 83.1919 3.42534 84.2125Q3.00261 85.233 2.63046 86.2731Q2.25831 87.3132 1.93764 88.3703Q1.61697 89.4274 1.34856 90.499Q1.08015 91.5705 0.864643 92.654Q0.649134 93.7374 0.487046 94.8301Q0.324958 95.9228 0.216682 97.0222Q0.108407 98.1215 0.0542033 99.2248Q0 100.328 0 101.433L0 338.435Q0 339.54 0.0542033 340.643Q0.108407 341.746 0.216682 342.846Q0.324958 343.945 0.487046 345.038Q0.649134 346.13 0.864643 347.214Q1.08015 348.297 1.34856 349.369Q1.61697 350.44 1.93764 351.497Q2.25831 352.554 2.63046 353.595Q3.00261 354.635 3.42534 355.655Q3.84808 356.676 4.32039 357.674Q4.79269 358.673 5.31342 359.647Q5.83416 360.621 6.40207 361.569Q6.96998 362.516 7.5837 363.435Q8.19742 364.353 8.85546 365.241Q9.51351 366.128 10.2143 366.982Q10.9151 367.836 11.6569 368.654Q12.3988 369.473 13.1799 370.254Q13.961 371.035 14.7795 371.777Q15.598 372.519 16.4519 373.22Q17.3059 373.92 18.1931 374.578Q19.0804 375.236 19.9989 375.85Q20.9174 376.464 21.8649 377.032Q22.8124 377.6 23.7866 378.12Q24.7608 378.641 25.7594 379.113Q26.7581 379.586 27.7786 380.008Q28.7992 380.431 29.8393 380.803Q30.8794 381.176 31.9365 381.496Q32.9936 381.817 34.0651 382.085Q35.1367 382.354 36.2201 382.569Q37.3036 382.785 38.3963 382.947Q39.489 383.109 40.5883 383.217Q41.6877 383.325 42.791 383.38Q43.8943 383.434 44.999 383.434L299.156 383.434C293.589 370.73 290.5 356.692 290.5 341.934C290.5 284.772 336.839 238.434 394 238.434C451.161 238.434 497.5 284.772 497.5 341.934C497.5 353.873 495.479 365.34 491.759 376.011Q492.339 375.628 492.908 375.228Q493.476 374.828 494.031 374.411Q494.587 373.993 495.129 373.559Q495.672 373.125 496.2 372.674Q496.729 372.223 497.244 371.756Q497.758 371.289 498.258 370.806Q498.758 370.324 499.243 369.826Q499.727 369.328 500.196 368.815Q500.666 368.303 501.119 367.776Q501.572 367.249 502.008 366.708Q502.445 366.168 502.865 365.614Q503.284 365.06 503.687 364.494Q504.089 363.927 504.474 363.349Q504.859 362.77 505.225 362.18Q505.592 361.589 505.94 360.988Q506.288 360.387 506.618 359.775Q506.947 359.163 507.258 358.542Q507.568 357.92 507.86 357.289Q508.151 356.658 508.422 356.019Q508.694 355.379 508.945 354.731Q509.197 354.084 509.429 353.428Q509.66 352.773 509.871 352.111Q510.083 351.449 510.273 350.781Q510.464 350.113 510.634 349.439Q510.804 348.765 510.953 348.087Q511.102 347.408 511.23 346.725Q511.358 346.042 511.465 345.355Q511.572 344.669 511.657 343.979Q511.743 343.29 511.807 342.598Q511.871 341.906 511.914 341.212Q511.957 340.519 511.979 339.824Q512 339.13 512 338.435L512 101.433Q512 100.328 511.946 99.2248Q511.892 98.1215 511.783 97.0222Q511.675 95.9228 511.513 94.8301Q511.351 93.7374 511.135 92.654Q510.92 91.5705 510.651 90.499Q510.383 89.4274 510.062 88.3703Q509.742 87.3132 509.369 86.2731Q508.997 85.233 508.575 84.2125Q508.152 83.1919 507.68 82.1933Q507.207 81.1947 506.686 80.2204Q506.166 79.2462 505.598 78.2987Q505.03 77.3512 504.416 76.4327Q503.802 75.5142 503.144 74.627Q502.486 73.7397 501.786 72.8858Q501.085 72.0318 500.343 71.2133Q499.601 70.3949 498.82 69.6137Q498.039 68.8326 497.22 68.0908Q496.402 67.3489 495.548 66.6481Q494.694 65.9473 493.807 65.2893Q492.92 64.6313 492.001 64.0175Q491.083 63.4038 490.135 62.8359Q489.188 62.268 488.213 61.7473Q487.239 61.2265 486.24 60.7542Q485.242 60.2819 484.221 59.8592Q483.201 59.4364 482.161 59.0643Q481.121 58.6921 480.063 58.3715Q479.006 58.0508 477.935 57.7824Q476.863 57.514 475.78 57.2985Q474.696 57.083 473.604 56.9209Q472.511 56.7588 471.412 56.6505Q470.312 56.5422 469.209 56.488Q468.106 56.4338 467.001 56.4338L377.217 56.4338Q376.78 55.3098 376.205 54.2499L358.601 21.8103Q358.273 21.2073 357.926 20.6156Q357.579 20.0239 357.212 19.4442Q356.845 18.8645 356.459 18.2973Q356.073 17.7302 355.668 17.1762Q355.264 16.6223 354.841 16.0823Q354.418 15.5422 353.977 15.0166Q353.536 14.491 353.078 13.9804Q352.619 13.4699 352.144 12.9749Q351.669 12.48 351.178 12.0012Q350.686 11.5225 350.179 11.0604Q349.672 10.5983 349.15 10.1535Q348.628 9.70866 348.091 9.28155Q347.554 8.85443 347.003 8.44552Q346.452 8.03661 345.888 7.64635Q345.324 7.2561 344.747 6.88494Q344.17 6.51378 343.581 6.16214Q342.992 5.81049 342.391 5.47875Q341.791 5.14701 341.179 4.83555Q340.568 4.52408 339.947 4.23324Q339.325 3.94241 338.695 3.67252Q338.064 3.40263 337.425 3.154Q336.785 2.90536 336.138 2.67826Q335.49 2.45116 334.836 2.24584Q334.181 2.04053 333.52 1.85723Q332.859 1.67393 332.192 1.51285Q331.525 1.35177 330.853 1.2131Q330.181 1.07442 329.505 0.958299Q328.829 0.842178 328.149 0.748745Q327.47 0.655312 326.787 0.58467Q326.105 0.514029 325.421 0.466257Q324.736 0.418486 324.051 0.393639Q323.365 0.368792 322.679 0.366897ZM255 133C216.34 133 185 164.917 185 204.288C185 243.66 216.34 275.577 255 275.577C293.66 275.577 325 243.66 325 204.288C325 164.917 293.66 133 255 133Z" id="path_3" />
    <path d="M0 128C0 57.3075 57.3075 0 128 0C198.692 0 256 57.3075 256 128C256 133.943 255.595 139.791 254.811 145.519C258.495 145.176 262.227 145 266 145C331.722 145 385 198.278 385 264C385 329.722 331.722 383 266 383C200.278 383 147 329.722 147 264C147 260.817 147.125 257.664 147.37 254.544C141.053 255.503 134.585 256 128 256C57.3075 256 0 198.692 0 128L0 128Z" transform="translate(128 77)" id="path_4" />
    <path d="M0 26C0 11.6406 11.6406 0 26 0C40.3594 0 52 11.6406 52 26C52 40.3594 40.3594 52 26 52C11.6406 52 0 40.3594 0 26Z" transform="translate(401.0001 93.99976)" id="path_5" />
    <clipPath id="clip_1">
      <use xlink:href="#path_1" />
    </clipPath>
    <clipPath id="clip_2">
      <use xlink:href="#path_2" />
    </clipPath>
    <clipPath id="clip_3">
      <use xlink:href="#path_3" />
    </clipPath>
    <clipPath id="clip_4">
      <use xlink:href="#path_4" />
    </clipPath>
    <clipPath id="clip_5">
      <use xlink:href="#path_5" />
    </clipPath>
  </defs>
  <g id="Camera" transform="translate(7.5 7.5)">
    <g id="Rectangle-2-Copy">
      <use stroke="none" fill="#00C6FB" xlink:href="#path_1" />
      <g clip-path="url(#clip_1)">
        <use xlink:href="#path_1" fill="none" stroke="#FFFFFF" stroke-width="34" />
      </g>
    </g>
    <g id="Rectangle-2">
      <use stroke="none" fill="#00C6FB" xlink:href="#path_2" />
      <g clip-path="url(#clip_2)">
        <use xlink:href="#path_2" fill="none" stroke="#FFFFFF" stroke-width="34" />
      </g>
    </g>
    <g id="Rectangle-Union-Difference">
      <use stroke="none" fill="url(#gradient_1)" xlink:href="#path_3" fill-rule="evenodd" />
      <g clip-path="url(#clip_3)">
        <use xlink:href="#path_3" fill="none" stroke="#FFFFFF" stroke-width="34" />
      </g>
    </g>
    <g id="Vector-shape">
      <g clip-path="url(#clip_4)">
        <use xlink:href="#path_4" fill="none" stroke="#FFFFFF" stroke-width="34" />
      </g>
    </g>
    <path d="M0 0L0 208" transform="translate(86 109)" id="New-shape" fill="none" stroke="#FFFFFF" stroke-width="15" stroke-linecap="round" />
    <g id="Ellipse-Copy-2">
      <g clip-path="url(#clip_5)">
        <use xlink:href="#path_5" fill="none" stroke="#FFFFFF" stroke-width="34" />
      </g>
    </g>
    <path d="M0 1L141 1" transform="translate(324 340)" id="New-shape-2-Copy" fill="none" stroke="#FFFFFF" stroke-width="15" stroke-linecap="round" />
    <path d="M1 0L1 139" transform="translate(393 272)" id="New-shape-2" fill="none" stroke="#FFFFFF" stroke-width="15" stroke-linecap="round" />
  </g>
</svg>