<?xml version="1.0" encoding="utf-8"?>
<svg width="331px" height="331px" viewBox="0 0 331 331" version="1.1" xmlns:xlink="http://www.w3.org/1999/xlink" xmlns="http://www.w3.org/2000/svg">
  <desc>Created with Lunacy</desc>
  <defs>
    <radialGradient gradientUnits="objectBoundingBox" cx="88.85371%" cy="16.00321%" fx="88.85371%" fy="16.00321%" r="81.98408%" gradientTransform="translate(0.8885371,0.1600321),rotate(138.3942),scale(1,0.9781365),translate(-0.8885371,-0.1600321)" id="gradient_1">
      <stop offset="0%" stop-color="#005BEA" />
      <stop offset="27.79547%" stop-color="#0064EB" />
      <stop offset="100%" stop-color="#00C6FB" />
    </radialGradient>
  </defs>
  <g id="Group-2">
    <path d="M65.999 0L265.001 0Q266.621 0 268.239 0.0794987Q269.858 0.158997 271.47 0.317803Q273.082 0.476609 274.685 0.714339Q276.288 0.95207 277.877 1.26815Q279.466 1.58423 281.037 1.97791Q282.609 2.37158 284.159 2.84189Q285.71 3.31221 287.235 3.85803Q288.761 4.40386 290.258 5.02387Q291.755 5.64389 293.219 6.33661Q294.684 7.02933 296.113 7.79308Q297.542 8.55683 298.931 9.38977Q300.321 10.2227 301.668 11.1228Q303.015 12.023 304.317 12.9881Q305.618 13.9532 306.87 14.9811Q308.123 16.0089 309.323 17.097Q310.524 18.185 311.669 19.3307Q312.815 20.4763 313.903 21.6768Q314.991 22.8773 316.019 24.1297Q317.047 25.3821 318.012 26.6834Q318.977 27.9848 319.877 29.3319Q320.777 30.679 321.61 32.0687Q322.443 33.4584 323.207 34.8873Q323.971 36.3162 324.663 37.7808Q325.356 39.2454 325.976 40.7423Q326.596 42.2391 327.142 43.7646Q327.688 45.2901 328.158 46.8405Q328.628 48.3909 329.022 49.9625Q329.416 51.5342 329.732 53.1232Q330.048 54.7123 330.286 56.3149Q330.523 57.9176 330.682 59.53Q330.841 61.1424 330.92 62.7606Q331 64.3788 331 65.999L331 265.001Q331 266.621 330.92 268.239Q330.841 269.858 330.682 271.47Q330.523 273.082 330.286 274.685Q330.048 276.288 329.732 277.877Q329.416 279.466 329.022 281.037Q328.628 282.609 328.158 284.159Q327.688 285.71 327.142 287.235Q326.596 288.761 325.976 290.258Q325.356 291.755 324.663 293.219Q323.971 294.684 323.207 296.113Q322.443 297.542 321.61 298.931Q320.777 300.321 319.877 301.668Q318.977 303.015 318.012 304.317Q317.047 305.618 316.019 306.87Q314.991 308.123 313.903 309.323Q312.815 310.524 311.669 311.669Q310.524 312.815 309.323 313.903Q308.123 314.991 306.87 316.019Q305.618 317.047 304.317 318.012Q303.015 318.977 301.668 319.877Q300.321 320.777 298.931 321.61Q297.542 322.443 296.113 323.207Q294.684 323.971 293.219 324.663Q291.755 325.356 290.258 325.976Q288.761 326.596 287.235 327.142Q285.71 327.688 284.159 328.158Q282.609 328.628 281.037 329.022Q279.466 329.416 277.877 329.732Q276.288 330.048 274.685 330.286Q273.082 330.523 271.47 330.682Q269.858 330.841 268.239 330.92Q266.621 331 265.001 331L65.999 331Q64.3788 331 62.7606 330.92Q61.1424 330.841 59.53 330.682Q57.9176 330.523 56.3149 330.286Q54.7123 330.048 53.1232 329.732Q51.5342 329.416 49.9625 329.022Q48.3909 328.628 46.8405 328.158Q45.2901 327.688 43.7646 327.142Q42.2391 326.596 40.7423 325.976Q39.2454 325.356 37.7808 324.663Q36.3162 323.971 34.8873 323.207Q33.4584 322.443 32.0687 321.61Q30.679 320.777 29.3319 319.877Q27.9848 318.977 26.6834 318.012Q25.3821 317.047 24.1297 316.019Q22.8773 314.991 21.6768 313.903Q20.4763 312.815 19.3307 311.669Q18.185 310.524 17.097 309.323Q16.0089 308.123 14.9811 306.87Q13.9532 305.618 12.9881 304.317Q12.023 303.015 11.1228 301.668Q10.2227 300.321 9.38977 298.931Q8.55683 297.542 7.79308 296.113Q7.02933 294.684 6.33661 293.219Q5.64389 291.755 5.02387 290.258Q4.40386 288.761 3.85803 287.235Q3.31221 285.71 2.84189 284.159Q2.37158 282.609 1.97791 281.037Q1.58423 279.466 1.26815 277.877Q0.95207 276.288 0.714339 274.685Q0.476609 273.082 0.317803 271.47Q0.158997 269.858 0.0794987 268.239Q0 266.621 0 265.001L0 65.999Q0 64.3788 0.0794987 62.7606Q0.158997 61.1424 0.317803 59.53Q0.476609 57.9176 0.714339 56.3149Q0.95207 54.7123 1.26815 53.1232Q1.58423 51.5342 1.97791 49.9625Q2.37158 48.3909 2.84189 46.8405Q3.31221 45.2901 3.85803 43.7646Q4.40386 42.2391 5.02387 40.7423Q5.64389 39.2454 6.33661 37.7808Q7.02933 36.3162 7.79308 34.8873Q8.55683 33.4584 9.38977 32.0687Q10.2227 30.679 11.1228 29.3319Q12.023 27.9848 12.9881 26.6834Q13.9532 25.3821 14.9811 24.1297Q16.0089 22.8773 17.097 21.6768Q18.185 20.4763 19.3307 19.3307Q20.4763 18.185 21.6768 17.097Q22.8773 16.0089 24.1297 14.9811Q25.3821 13.9532 26.6834 12.9881Q27.9848 12.023 29.3319 11.1228Q30.679 10.2227 32.0687 9.38977Q33.4584 8.55683 34.8873 7.79308Q36.3162 7.02933 37.7808 6.33661Q39.2454 5.64389 40.7423 5.02387Q42.2391 4.40386 43.7646 3.85803Q45.2901 3.31221 46.8405 2.84189Q48.3909 2.37158 49.9625 1.97791Q51.5342 1.58423 53.1232 1.26815Q54.7123 0.95207 56.3149 0.714339Q57.9176 0.476609 59.53 0.317803Q61.1424 0.158997 62.7606 0.0794987Q64.3788 0 65.999 0Z" id="Rectangle-2" fill="url(#gradient_1)" stroke="none" />
    <g id="graffiti" transform="translate(96.00024 16.41052)">
      <g id="001---Graffiti">
        <path d="M10.0055 5.00275C10.0055 2.23981 7.76569 0 5.00275 0C2.23981 0 0 2.23981 0 5.00275C0 7.76569 2.23981 10.0055 5.00275 10.0055C7.76569 10.0055 10.0055 7.76569 10.0055 5.00275L10.0055 5.00275Z" transform="translate(64 20.05981)" id="Shape" fill="#FFFFFF" stroke="none" />
        <path d="M9.60717 281.154L10.4076 112.061C5.20497 109.068 1.55247 103.969 0.391914 98.0798C-0.768637 92.1907 0.676351 86.0876 4.35429 81.3441C10.5077 73.3897 18.0118 73.5398 26.0662 72.6893C29.439 60.7827 38.3404 51.2296 49.9793 47.0252L49.9793 15.0577C49.9793 6.76887 56.6987 0.0494513 64.9876 0.0494513C66.3193 0.0494513 67.5625 0.0355216 68.7293 0.0224483C76.6795 -0.0666294 81.0811 -0.115947 85.749 4.55192C88.485 7.36348 90.0114 11.1346 90.0013 15.0577L90.0013 46.9752C101.765 51.1995 110.692 60.9496 113.864 73.0395L122.119 73.99C130.74 75.2894 137.663 81.7778 139.518 90.2968C141.373 98.8157 137.774 107.595 130.474 112.361L129.673 281.904C129.651 289.115 124.505 295.29 117.416 296.612C85.7058 301.701 53.375 301.549 21.7138 296.162C14.5044 294.871 9.34308 288.473 9.60717 281.154ZM64.9881 10.0554C62.2252 10.0554 59.9854 12.2952 59.9854 15.0582L59.9854 45.0746L79.9963 45.0746L79.9963 15.0582C79.9778 13.7631 79.4577 12.5257 78.5455 11.6063C76.9351 9.99579 76.0427 10.001 69.2682 10.0402C68.0459 10.0472 66.6321 10.0554 64.9881 10.0554ZM60.8853 55.0791L79.1454 55.0791C89.56 55.4872 98.7652 61.97 102.658 71.6382C80.8365 69.7622 58.894 69.7622 37.0723 71.6382C41.0512 61.9065 50.3772 55.4214 60.8853 55.0791ZM29.3782 103.676C43.9239 102.073 71.5989 99.0226 118.367 105.108C121.135 105.446 123.924 104.663 126.113 102.935C128.302 101.206 129.71 98.6742 130.023 95.9025C130.571 93.0049 129.899 90.0096 128.166 87.6234C126.433 85.2373 123.793 83.6715 120.868 83.2956C87.1171 78.7678 52.9128 78.7678 19.1621 83.2956C14.243 83.9985 10.4541 87.9937 10.0128 92.9431C9.57158 97.8925 12.5939 102.495 17.311 104.057C19.1418 104.805 22.9963 104.38 29.3782 103.676ZM119.668 281.604C119.712 284.035 118.002 286.145 115.616 286.607C85.1092 291.43 54.0227 291.278 23.565 286.157C21.218 285.653 19.5594 283.554 19.6128 281.154L20.3632 114.512L22.5644 114.512C54.8128 110.56 87.4389 110.829 119.618 115.313C119.701 115.299 119.778 115.222 119.847 115.152C119.913 115.087 119.972 115.027 120.025 115.032C120.535 115.079 120.503 121.027 120.165 183.938L120.165 183.939L120.165 183.94C120.039 207.563 119.868 239.216 119.668 281.604Z" id="Shape" fill="#FFFFFF" fill-rule="evenodd" stroke="none" />
        <path d="M0 55.6489C0 46.4439 7.60418 30.1349 22.5124 6.97221C25.276 2.61303 30.0856 -0.0202099 35.247 0.000114504C40.4083 0.0204389 45.1971 2.69147 47.9263 7.07225C62.6344 30.335 70.0384 46.744 70.0384 55.9491C70.0024 65.1276 66.2481 73.8997 59.6327 80.2624C37.7207 101.524 0 86.4158 0 55.6489ZM17.4382 73.1193C22.1308 77.7086 28.4562 80.2427 35.0193 80.1626C48.622 80.3576 59.8137 69.5015 60.0331 55.8993C60.0331 48.9455 52.529 33.1368 39.4718 12.3754C38.5596 10.9036 36.9511 10.0081 35.2195 10.0081C33.4878 10.0081 31.8793 10.9036 30.9671 12.3754C17.6598 32.9367 10.0056 48.7454 10.0056 55.6992C10.0716 62.2625 12.7457 68.53 17.4382 73.1193Z" transform="translate(34 150.0129)" id="Shape" fill="#FFFFFF" fill-rule="evenodd" stroke="none" />
      </g>
    </g>
  </g>
</svg>